<svg xmlns="http://www.w3.org/2000/svg" width="1200" height="630" viewBox="0 0 1200 630">
  <rect width="1200" height="630" fill="#F2E51C"/>
  <rect x="642" y="84" width="448" height="462" rx="32" fill="#F4F4F6" stroke="#17131F" stroke-width="8"/>
  <rect x="658" y="100" width="448" height="462" rx="32" fill="#17131F"/>
  <rect x="642" y="84" width="448" height="462" rx="32" fill="#F4F4F6" stroke="#17131F" stroke-width="8"/>
  <rect x="690" y="132" width="352" height="122" rx="22" fill="#FF57A8" stroke="#17131F" stroke-width="7"/>
  <text x="866" y="228" text-anchor="middle" font-family="Zen Kaku Gothic New" font-weight="900" font-size="112" fill="#17131F">桜</text>
  <rect x="690" y="286" width="166" height="206" rx="22" fill="#FFFFFF" stroke="#17131F" stroke-width="7"/>
  <path d="M745 338c32 8 57 33 55 65-2 29-25 54-56 61" fill="none" stroke="#17131F" stroke-width="16" stroke-linecap="round"/>
  <circle cx="742" cy="334" r="13" fill="#F2E51C" stroke="#17131F" stroke-width="5"/>
  <rect x="882" y="286" width="160" height="96" rx="18" fill="#2B36E3" stroke="#17131F" stroke-width="7"/>
  <rect x="882" y="406" width="160" height="86" rx="18" fill="#8FE838" stroke="#17131F" stroke-width="7"/>
  <g transform="translate(100 118)">
    <rect x="18" y="28" width="178" height="178" rx="44" fill="#17131F"/>
    <rect x="4" y="14" width="178" height="178" rx="44" fill="#F2E51C" stroke="#17131F" stroke-width="12"/>
    <text x="93" y="111" text-anchor="middle" dominant-baseline="central" font-family="Zen Kaku Gothic New" font-weight="900" font-size="118" fill="#17131F">字</text>
  </g>
  <text x="100" y="407" font-family="Space Grotesk" font-weight="700" font-size="108" letter-spacing="-5" fill="#17131F">jibiki</text>
  <rect x="409" y="365" width="34" height="34" rx="6" fill="#FF57A8" stroke="#17131F" stroke-width="7" transform="rotate(12 426 382)"/>
  <rect x="104" y="474" width="118" height="24" rx="7" fill="#2B36E3" stroke="#17131F" stroke-width="7" transform="rotate(-7 163 486)"/>
  <rect x="248" y="468" width="28" height="28" rx="6" fill="#8FE838" stroke="#17131F" stroke-width="7" transform="rotate(10 262 482)"/>
</svg>
